<?xml version="1.0" encoding="UTF-8" standalone="no"?>
<svg
   width="512"
   height="512"
   viewBox="0 0 512 512"
   version="1.1"
   id="svg14"
   sodipodi:docname="icon.svg"
   inkscape:version="1.4.2 (ebf0e940, 2025-05-08)"
   inkscape:export-filename="export.svg"
   inkscape:export-xdpi="96"
   inkscape:export-ydpi="96"
   xmlns:inkscape="http://www.inkscape.org/namespaces/inkscape"
   xmlns:sodipodi="http://sodipodi.sourceforge.net/DTD/sodipodi-0.dtd"
   xmlns="http://www.w3.org/2000/svg"
   xmlns:svg="http://www.w3.org/2000/svg">
  <defs
     id="defs14">
    <linearGradient
       id="swatch26"
       inkscape:swatch="solid"
       gradientTransform="matrix(0.5,0,0,0.5,33.007262,90.033892)">
      <stop
         style="stop-color:#22272f;stop-opacity:1;"
         offset="0"
         id="stop26" />
    </linearGradient>
    <linearGradient
       id="swatch25">
      <stop
         style="stop-color:#22272f;stop-opacity:1;"
         offset="0"
         id="stop25" />
    </linearGradient>
    <linearGradient
       id="swatch24">
      <stop
         style="stop-color:#141218;stop-opacity:1;"
         offset="0"
         id="stop24" />
    </linearGradient>
    <linearGradient
       id="swatch21"
       inkscape:swatch="solid"
       gradientTransform="matrix(0.27661955,0,0,0.27452748,-22.704864,-7.366392)">
      <stop
         style="stop-color:#141218;stop-opacity:1;"
         offset="0"
         id="stop21" />
    </linearGradient>
    <linearGradient
       id="swatch15"
       inkscape:swatch="solid"
       gradientTransform="matrix(0.87702859,0,0,0.89969363,250.53599,72.923587)">
      <stop
         style="stop-color:#121212;stop-opacity:1;"
         offset="0"
         id="stop15" />
    </linearGradient>
  </defs>
  <sodipodi:namedview
     id="namedview14"
     pagecolor="#505050"
     bordercolor="#eeeeee"
     borderopacity="1"
     inkscape:showpageshadow="0"
     inkscape:pageopacity="0"
     inkscape:pagecheckerboard="0"
     inkscape:deskcolor="#505050"
     inkscape:zoom="1.6132812"
     inkscape:cx="191.53511"
     inkscape:cy="277.69492"
     inkscape:window-width="2128"
     inkscape:window-height="1317"
     inkscape:window-x="1932"
     inkscape:window-y="31"
     inkscape:window-maximized="0"
     inkscape:current-layer="layer1"
     showgrid="false"
     showguides="true">
    <inkscape:grid
       id="grid5"
       units="px"
       originx="0"
       originy="0"
       spacingx="1"
       spacingy="1"
       empcolor="#0099e5"
       empopacity="0.30196078"
       color="#0099e5"
       opacity="0.14901961"
       empspacing="5"
       enabled="true"
       visible="false"
       dotted="false" />
  </sodipodi:namedview>
  <g
     inkscape:groupmode="layer"
     id="layer2"
     inkscape:label="Guides (hide when exporting)"
     style="display:none">
    <rect
       width="512"
       height="512"
       id="rect1"
       style="display:inline;fill:url(#swatch21);fill-opacity:1;stroke-width:0.5"
       x="0"
       y="0"
       fill="#121212"
       inkscape:label="background" />
    <g
       id="g5"
       inkscape:label="keylines"
       style="display:inline">
      <rect
         style="font-variation-settings:'wght' 680;display:inline;fill:url(#swatch26);fill-opacity:1;stroke-width:0.500785"
         id="keyline_grid"
         width="384"
         height="384"
         x="64"
         y="64"
         inkscape:label="square" />
      <circle
         style="font-variation-settings:'wght' 680;fill:#8b3939;fill-opacity:1;stroke-width:0.891822"
         id="path4"
         cx="256"
         cy="256"
         inkscape:label="circle"
         r="176" />
      <circle
         style="font-variation-settings:'wght' 680;display:inline;fill:url(#swatch15);fill-opacity:1;stroke-width:1.00157"
         id="circle6"
         cx="256"
         cy="256"
         inkscape:label="safe zone"
         r="156.39999" />
    </g>
    <g
       id="g20"
       style="display:inline"
       transform="matrix(0.51198521,0,0,0.51198521,-85.881955,243.27139)"
       inkscape:label="text">
      <text
         x="198.60176"
         y="497.51889"
         font-family="monospace"
         font-size="92px"
         fill="#ffffff"
         letter-spacing="6"
         id="text5-4"
         style="font-style:normal;font-variant:normal;font-weight:normal;font-stretch:normal;font-size:104.17px;font-family:'.SF NS Mono';-inkscape-font-specification:'.SF NS Mono, @wght=900';font-variant-ligatures:normal;font-variant-caps:normal;font-variant-numeric:normal;font-variant-east-asian:normal;font-variation-settings:'wght' 900"
         inkscape:label="SSH">SSH</text>
      <text
         x="198.60176"
         y="368.64801"
         font-family="monospace"
         font-size="92px"
         fill="#ffffff"
         id="text4-6"
         style="font-style:normal;font-variant:normal;font-weight:normal;font-stretch:normal;font-size:104.17px;font-family:'.SF NS Mono';-inkscape-font-specification:'.SF NS Mono, @wght=900';font-variant-ligatures:normal;font-variant-caps:normal;font-variant-numeric:normal;font-variant-east-asian:normal;font-variation-settings:'wght' 900"
         inkscape:label="&gt;_">&gt;_</text>
    </g>
  </g>
  <g
     inkscape:groupmode="layer"
     id="layer3"
     inkscape:label="Notification icon"
     transform="translate(5.2596417,147.70828)"
     style="display:none">
    <rect
       style="font-variation-settings:'wght' 900;display:inline;fill:#c35948;fill-opacity:0;stroke-width:9.18929"
       id="rect3"
       width="156.30762"
       height="156.30762"
       x="148.90285"
       y="193.96175"
       rx="4.5246906"
       inkscape:label="rect for square export" />
    <g
       id="g3"
       transform="translate(1.1558228,-0.02277374)"
       inkscape:label="phone">
      <rect
         x="183.84683"
         y="199.84683"
         width="84.108002"
         height="144.58299"
         fill="#121212"
         stroke="#ffffff"
         stroke-width="28"
         id="rect5-7"
         style="display:inline;fill:none;stroke-width:11.6937;stroke-dasharray:none"
         inkscape:label="phone outline"
         rx="16.82155" />
      <rect
         x="198.41946"
         y="287.87018"
         width="14.458289"
         height="8.3705883"
         rx="4.1852942"
         fill="#ffffff"
         id="rect6-7"
         style="stroke-width:0.351215" />
      <rect
         x="218.70934"
         y="287.87018"
         width="14.458289"
         height="8.3705883"
         rx="4.1852942"
         fill="#ffffff"
         id="rect7-7"
         style="stroke-width:0.352664" />
      <rect
         x="238.99922"
         y="287.87018"
         width="14.458289"
         height="8.3705883"
         fill="#ffffff"
         id="rect8-2"
         rx="4.1852942"
         style="stroke-width:0.352664" />
      <rect
         x="198.41946"
         y="303.08942"
         width="14.458289"
         height="8.3705883"
         rx="4.1852942"
         fill="#ffffff"
         id="rect9-4"
         style="stroke-width:0.351215" />
      <rect
         x="218.70934"
         y="303.08942"
         width="14.458289"
         height="8.3705883"
         rx="4.1852942"
         fill="#ffffff"
         id="rect10-2"
         style="stroke-width:0.352664" />
      <rect
         x="238.99922"
         y="303.08942"
         width="14.458289"
         height="8.3705883"
         rx="4.1852942"
         fill="#ffffff"
         id="rect11-9"
         style="stroke-width:0.352664" />
      <rect
         x="198.41946"
         y="318.30869"
         width="14.458289"
         height="8.3705883"
         rx="4.1852942"
         fill="#ffffff"
         id="rect12-9"
         style="stroke-width:0.351215" />
      <rect
         x="218.70934"
         y="318.30869"
         width="14.458289"
         height="8.3705883"
         rx="4.1852942"
         fill="#ffffff"
         id="rect13-3"
         style="stroke-width:0.352664" />
      <rect
         x="238.99922"
         y="318.30869"
         width="14.458289"
         height="8.3705883"
         rx="4.1852942"
         fill="#ffffff"
         id="rect14-7"
         style="stroke-width:0.352664" />
      <circle
         cx="225.90073"
         cy="252.41878"
         r="18.263102"
         fill="none"
         stroke="#ffffff"
         stroke-width="20"
         id="circle5-0"
         style="display:inline;stroke-width:8.28304;stroke-dasharray:none" />
    </g>
  </g>
  <g
     inkscape:groupmode="layer"
     id="layer1"
     inkscape:label="App icon"
     style="display:inline"
     transform="matrix(0.97447433,0,0,0.97447433,6.4723616,6.6192999)">
    <g
       id="g1"
       transform="matrix(0.39044773,0,0,0.39044773,59.321735,56.818047)"
       inkscape:label="TV">
      <path
         id="rect2"
         style="fill:none;stroke:#ffffff;stroke-width:30.7339;stroke-dasharray:none"
         d="M 558.01897,590.13803 H 433.41765 H 209.41765 C 189.47365,590.13803 173.41765,574.08203 173.41765,554.13803 V 306.13803 C 173.41765,286.19403 189.47365,270.13803 209.41765,270.13803 H 657.41765 C 677.36165,270.13803 693.41765,286.19403 693.41765,306.13803 V 342.73851"
         sodipodi:nodetypes="ccssssssc"
         inkscape:label="tv outline" />
      <line
         x1="433.41766"
         y1="590.13806"
         x2="433.41766"
         y2="650.13806"
         stroke="#ffffff"
         stroke-width="28"
         stroke-linecap="round"
         id="line3"
         style="stroke-width:30.7339;stroke-dasharray:none" />
      <line
         x1="353.41763"
         y1="650.13806"
         x2="513.41766"
         y2="650.13806"
         stroke="#ffffff"
         stroke-width="28"
         stroke-linecap="round"
         id="line4"
         style="stroke-width:30.7339;stroke-dasharray:none" />
    </g>
    <g
       id="g6"
       style="display:inline"
       transform="matrix(0.44898946,0,0,0.44898946,60.168609,43.605781)"
       inkscape:label="text">
      <path
         d="M 201.75534,476.35936 H 219.10006 Q 219.45611,480.37764 222.50796,482.51393 Q 225.55982,484.65023 231.05316,484.65023 Q 235.93613,484.65023 238.73366,482.5648 Q 241.58206,480.4285 241.58206,476.76627 Q 241.58206,473.66355 239.39489,471.98503 Q 237.2586,470.30651 231.71439,469.13664 L 223.0166,467.25466 Q 213.25067,465.16922 208.21511,459.82848 Q 203.23041,454.43686 203.23041,446.14599 Q 203.23041,438.92327 206.58745,433.68425 Q 209.94449,428.39437 216.09907,425.54597 Q 222.3045,422.6467 230.74797,422.6467 Q 238.98798,422.6467 245.14256,425.4951 Q 251.348,428.29264 254.85763,433.37906 Q 258.36726,438.46549 258.46899,445.2813 H 241.12428 Q 240.92082,441.41561 238.17415,439.17759 Q 235.47835,436.93956 230.95143,436.93956 Q 226.67883,436.93956 224.13562,438.8724 Q 221.64327,440.75438 221.64327,444.00969 Q 221.64327,447.36673 223.77957,449.29957 Q 225.96673,451.18155 230.95143,452.19884 L 239.34403,453.97909 Q 249.97466,456.16625 254.90849,461.20181 Q 259.84233,466.18651 259.84233,474.68084 Q 259.84233,482.36134 256.38356,487.80382 Q 252.92479,493.24629 246.41416,496.14556 Q 239.90354,498.99395 230.64624,498.99395 Q 217.31981,498.99395 209.6393,492.99197 Q 202.00967,486.98999 201.75534,476.35936 Z M 272.14949,476.35936 H 289.49421 Q 289.85026,480.37764 292.90211,482.51393 Q 295.95397,484.65023 301.44731,484.65023 Q 306.33028,484.65023 309.12781,482.5648 Q 311.97621,480.4285 311.97621,476.76627 Q 311.97621,473.66355 309.78904,471.98503 Q 307.65275,470.30651 302.10854,469.13664 L 293.41075,467.25466 Q 283.64482,465.16922 278.60926,459.82848 Q 273.62456,454.43686 273.62456,446.14599 Q 273.62456,438.92327 276.9816,433.68425 Q 280.33864,428.39437 286.49322,425.54597 Q 292.69865,422.6467 301.14212,422.6467 Q 309.38213,422.6467 315.53671,425.4951 Q 321.74215,428.29264 325.25178,433.37906 Q 328.76141,438.46549 328.86314,445.2813 H 311.51843 Q 311.31497,441.41561 308.5683,439.17759 Q 305.8725,436.93956 301.34558,436.93956 Q 297.07298,436.93956 294.52977,438.8724 Q 292.03742,440.75438 292.03742,444.00969 Q 292.03742,447.36673 294.17372,449.29957 Q 296.36088,451.18155 301.34558,452.19884 L 309.73818,453.97909 Q 320.36881,456.16625 325.30264,461.20181 Q 330.23648,466.18651 330.23648,474.68084 Q 330.23648,482.36134 326.77771,487.80382 Q 323.31894,493.24629 316.80831,496.14556 Q 310.29769,498.99395 301.04039,498.99395 Q 287.71396,498.99395 280.03345,492.99197 Q 272.40382,486.98999 272.14949,476.35936 Z M 399.15556,497.51889 H 380.94616 V 467.91589 H 362.22811 V 497.51889 H 344.01871 V 424.12177 H 362.22811 V 452.91094 H 380.94616 V 424.12177 H 399.15556 Z"
         id="text5"
         style="font-size:104.17px;font-family:'.SF NS Mono';-inkscape-font-specification:'.SF NS Mono, @wght=900';font-variation-settings:'wght' 900;letter-spacing:6;fill:#ffffff"
         inkscape:label="SSH"
         aria-label="SSH" />
      <path
         d="M 205.77362,324.95806 L 236.24131,337.36894 V 338.43709 L 205.77362,350.84796 V 370.32897 L 255.97664,345.50722 V 330.2988 L 205.77362,305.47705 Z M 321.59153,389.96258 H 268.79444 V 374.60157 H 321.59153 Z"
         id="text6"
         style="font-size:104.17px;font-family:'.SF NS Mono';-inkscape-font-specification:'.SF NS Mono, @wght=900';font-variation-settings:'wght' 900;fill:#ffffff"
         inkscape:label="&gt;_"
         aria-label="&gt;_" />
    </g>
    <g
       id="g26"
       transform="matrix(0.39044773,0,0,0.39044773,59.321735,75.695675)"
       style="display:inline"
       inkscape:label="phone"
       inkscape:export-filename="g26.svg"
       inkscape:export-xdpi="96"
       inkscape:export-ydpi="96">
      <rect
         x="600.49243"
         y="338.79071"
         width="221.056"
         height="380"
         rx="44.211243"
         fill="#121212"
         stroke="#ffffff"
         stroke-width="28"
         id="rect5"
         style="display:inline;fill:none;stroke-width:30.7339;stroke-dasharray:none"
         inkscape:label="phone outline" />
      <rect
         x="638.79297"
         y="570.13806"
         width="38"
         height="22"
         rx="11"
         fill="#ffffff"
         id="rect6"
         style="stroke-width:0.923082" />
      <rect
         x="692.11981"
         y="570.13806"
         width="38"
         height="22"
         rx="11"
         fill="#ffffff"
         id="rect7"
         style="stroke-width:0.926889" />
      <rect
         x="745.44672"
         y="570.13806"
         width="38"
         height="22"
         fill="#ffffff"
         id="rect8"
         rx="11"
         style="stroke-width:0.926889" />
      <rect
         x="638.79297"
         y="610.13806"
         width="38"
         height="22"
         rx="11"
         fill="#ffffff"
         id="rect9"
         style="stroke-width:0.923082" />
      <rect
         x="692.11981"
         y="610.13806"
         width="38"
         height="22"
         rx="11"
         fill="#ffffff"
         id="rect10"
         style="stroke-width:0.926889" />
      <rect
         x="745.44672"
         y="610.13806"
         width="38"
         height="22"
         rx="11"
         fill="#ffffff"
         id="rect11"
         style="stroke-width:0.926889" />
      <rect
         x="638.79297"
         y="650.13806"
         width="38"
         height="22"
         rx="11"
         fill="#ffffff"
         id="rect12"
         style="stroke-width:0.923082" />
      <rect
         x="692.11981"
         y="650.13806"
         width="38"
         height="22"
         rx="11"
         fill="#ffffff"
         id="rect13"
         style="stroke-width:0.926889" />
      <rect
         x="745.44672"
         y="650.13806"
         width="38"
         height="22"
         rx="11"
         fill="#ffffff"
         id="rect14"
         style="stroke-width:0.926889" />
      <circle
         cx="711.02057"
         cy="476.96292"
         r="48"
         fill="none"
         stroke="#ffffff"
         stroke-width="20"
         id="circle5"
         style="display:inline;stroke-width:21.7699;stroke-dasharray:none" />
    </g>
  </g>
</svg>
