<svg xmlns="http://www.w3.org/2000/svg" width="512" height="512" viewBox="0 0 512 512">
  <style>
    #outline, circle {
      stroke: black;
    }
    rect {
      fill: black;
    }
  </style>
  <path
    d="M558.019 590.138H209.418c-19.944 0-36-16.056-36-36v-248c0-19.944 16.056-36 36-36h448c19.944 0 36 16.056 36 36v43"
    stroke-width="30"
    style="fill:none;stroke:black"
    transform="translate(-48.643 -55.738)scale(.60747)" />
  <path stroke-linecap="round" stroke-width="30" d="M433.418 590.138v60m-80 0h160"
    style="stroke:black"
    transform="translate(-48.643 -55.738)scale(.60747)" />
  <path
    d="M201.755 476.36H219.1q.356 4.018 3.408 6.154t8.545 2.136q4.883 0 7.68-2.085 2.85-2.137 2.85-5.799 0-3.102-2.188-4.781-2.136-1.678-7.68-2.848l-8.698-1.882q-9.766-2.086-14.802-7.427-4.985-5.391-4.985-13.682 0-7.223 3.357-12.462 3.357-5.29 9.512-8.138 6.206-2.9 14.649-2.9 8.24 0 14.395 2.85 6.205 2.797 9.715 7.883t3.611 11.902h-17.345q-.203-3.865-2.95-6.103-2.696-2.238-7.223-2.238-4.272 0-6.815 1.932-2.493 1.882-2.493 5.138 0 3.357 2.137 5.29 2.187 1.882 7.171 2.899l8.393 1.78q10.63 2.187 15.564 7.223 4.934 4.985 4.934 13.479 0 7.68-3.458 13.123-3.46 5.442-9.97 8.342-6.51 2.848-15.768 2.848-13.326 0-21.007-6.002-7.63-6.002-7.884-16.633Zm70.394 0h17.345q.356 4.018 3.408 6.154t8.545 2.136q4.883 0 7.68-2.085 2.85-2.137 2.85-5.799 0-3.102-2.188-4.781-2.136-1.678-7.68-2.848l-8.698-1.882q-9.766-2.086-14.802-7.427-4.984-5.391-4.984-13.682 0-7.223 3.357-12.462 3.357-5.29 9.511-8.138 6.206-2.9 14.65-2.9 8.24 0 14.394 2.85 6.205 2.797 9.715 7.883t3.611 11.902h-17.345q-.203-3.865-2.95-6.103-2.695-2.238-7.222-2.238-4.273 0-6.816 1.932-2.493 1.882-2.493 5.138 0 3.357 2.137 5.29 2.187 1.882 7.172 2.899l8.392 1.78q10.63 2.187 15.565 7.223 4.933 4.985 4.933 13.479 0 7.68-3.458 13.123-3.46 5.442-9.97 8.342-6.51 2.848-15.768 2.848-13.326 0-21.007-6.002-7.63-6.002-7.884-16.633Zm127.007 21.159h-18.21v-29.603h-18.718v29.603h-18.21v-73.397h18.21v28.789h18.718v-28.79h18.21Z"
    aria-label="SSH"
    style="fill:black"
    transform="translate(-47.325 -76.294)scale(.69855)" />
  <path
    d="m205.774 324.958 30.467 12.41v1.07l-30.467 12.41v19.481l50.203-24.822V330.3l-50.203-24.822Zm115.818 65.005h-52.798v-15.361h52.798Z"
    aria-label="&gt;_"
    style="fill:black"
    transform="translate(-47.325 -76.294)scale(.69855)" />

  <g transform="translate(383, 294) scale(2)">
    <rect id="outline" x="-33" y="-56" width="66" height="112" rx="12" stroke-width="8" style="fill:none" />
    <circle cx="0" cy="-15" r="15" stroke-width="6" fill="none" />
    <rect x="-21" y="12" width="11" height="6.5" rx="3" />
    <rect x="-5.5" y="12" width="11" height="6.5" rx="3" />
    <rect x="10" y="12" width="11" height="6.5" rx="3" />
    <rect x="-21" y="24" width="11" height="6.5" rx="3" />
    <rect x="-5.5" y="24" width="11" height="6.5" rx="3" />
    <rect x="10" y="24" width="11" height="6.5" rx="3" />
    <rect x="-21" y="36" width="11" height="6.5" rx="3" />
    <rect x="-5.5" y="36" width="11" height="6.5" rx="3" />
    <rect x="10" y="36" width="11" height="6.5" rx="3" />
  </g>
</svg>
